<svg xmlns="http://www.w3.org/2000/svg" xmlns:xlink="http://www.w3.org/1999/xlink" width="31" height="31" viewBox="0 0 31 31">
    <defs>
        <path id="a" d="M0 0h16v16H0z"/>
    </defs>
    <g fill="none" fill-rule="evenodd">
        <path fill="#D6002B" d="M26.46 26.46c-6.053 6.053-15.867 6.053-21.92 0-6.053-6.053-6.053-15.867 0-21.92 6.053-6.053 15.867-6.053 21.92 0 6.053 6.053 6.053 15.867 0 21.92z"/>
        <g transform="rotate(135 10.136 13.864)">
            <mask id="b" fill="#fff">
                <use xlink:href="#a"/>
            </mask>
            <path fill="#FFF" d="M15.928 12.756l-.08-.243c-.187-.559-.805-1.142-1.374-1.299l-2.103-.574c-.57-.155-1.382.053-1.8.472l-.76.76a8.076 8.076 0 0 1-5.679-5.68l.76-.761c.417-.417.626-1.23.471-1.8L4.79 1.526C4.636.958 4.05.34 3.49.152l-.24-.08c-.56-.187-1.36.002-1.777.42L.334 1.633c-.203.201-.333.78-.333.781a13.458 13.458 0 0 0 3.933 9.654 13.438 13.438 0 0 0 9.62 3.932c.019 0 .614-.126.817-.33l1.139-1.138c.417-.415.604-1.216.418-1.775" mask="url(#b)"/>
        </g>
    </g>
</svg>
