<svg xmlns="http://www.w3.org/2000/svg" width="49" height="49" viewBox="0 0 49 49">
    <g fill="none" fill-rule="evenodd" transform="translate(1 1)">
        <path fill="#E7ECED" d="M16.506 36.848l-7.012 3.825c-.411.224-.781.5-1.125.8A23.391 23.391 0 0 0 23.5 47a23.407 23.407 0 0 0 15.044-5.448 6.22 6.22 0 0 0-1.237-.829L29.8 36.97a2.863 2.863 0 0 1-1.583-2.56v-2.946c.211-.24.452-.55.71-.914a17.277 17.277 0 0 0 2.334-4.703 2.358 2.358 0 0 0 1.673-2.244v-3.145c0-.691-.308-1.31-.786-1.742v-4.546s.934-7.074-8.646-7.074-8.646 7.074-8.646 7.074v4.546a2.344 2.344 0 0 0-.786 1.742v3.145c0 .828.435 1.557 1.087 1.978C15.942 29 18 31.463 18 31.463v2.873c0 1.046-.574 2.01-1.493 2.512z"/>
        <path fill="#2E6580" d="M23.902.004C10.925-.218.225 10.122.004 23.098c-.126 7.358 3.153 13.97 8.374 18.368a6.244 6.244 0 0 1 1.115-.792l7.012-3.825a2.864 2.864 0 0 0 1.492-2.514v-2.873S15.94 29 15.154 25.58a2.358 2.358 0 0 1-1.087-1.979v-3.144c0-.692.308-1.31.786-1.743v-4.546s-.934-7.074 8.646-7.074 8.646 7.074 8.646 7.074v4.546c.48.433.786 1.05.786 1.743V23.6c0 1.057-.71 1.947-1.672 2.244a17.277 17.277 0 0 1-2.334 4.703c-.259.365-.5.673-.71.914v2.946c0 1.084.612 2.076 1.582 2.56l7.509 3.754c.45.226.857.51 1.232.827 5.064-4.223 8.335-10.537 8.457-17.647C47.218 10.925 36.879.225 23.902.004z"/>
        <circle cx="23.5" cy="23.5" r="23.5" stroke="#BAC0C3"/>
    </g>
</svg>
