<svg xmlns="http://www.w3.org/2000/svg" width="18" height="18" viewBox="0 0 18 18">
    <g fill="none" fill-rule="evenodd">
        <rect width="18" height="18" rx="2"/>
        <path fill="#FFF" d="M15.278 13.5l-.902.902c-.16.161-.632.261-.647.261a10.637 10.637 0 0 1-7.614-3.112A10.651 10.651 0 0 1 3 3.91c0-.002.103-.46.264-.618l.9-.902c.33-.331.964-.481 1.408-.333l.19.064c.442.148.907.637 1.03 1.088l.453 1.664c.122.452-.043 1.096-.373 1.425l-.602.602a6.393 6.393 0 0 0 4.495 4.497l.602-.602c.331-.331.974-.496 1.425-.374l1.664.455c.451.124.94.586 1.089 1.028l.063.192c.147.443-.002 1.076-.331 1.405z"/>
    </g>
</svg>
