<svg xmlns="http://www.w3.org/2000/svg" xmlns:xlink="http://www.w3.org/1999/xlink" width="18" height="18" viewBox="0 0 18 18">
    <defs>
        <path id="a" d="M0 0h16v7.273H0z"/>
    </defs>
    <g fill="none" fill-rule="evenodd">
        <rect width="18" height="18" fill="#1C8FC7" rx="2"/>
        <g transform="translate(1 5)">
            <mask id="b" fill="#fff">
                <use xlink:href="#a"/>
            </mask>
            <path fill="#FEFEFE" d="M9.973 3.853a.053.053 0 0 0-.054.053v.314c0 .029.024.052.054.052h.32c.03 0 .053-.023.053-.052v-.314a.053.053 0 0 0-.053-.053h-.32zm.32.704h-.32a.34.34 0 0 1-.344-.337v-.314a.34.34 0 0 1 .344-.337h.32a.34.34 0 0 1 .343.337v.314a.34.34 0 0 1-.343.337zm-2.07-1.283a.096.096 0 0 0-.097.095v.858c0 .053.043.095.097.095h.875a.096.096 0 0 0 .097-.095V3.37a.096.096 0 0 0-.097-.095h-.875zm.875 1.332h-.875a.383.383 0 0 1-.387-.379V3.37c0-.209.173-.379.387-.379h.875c.213 0 .387.17.387.379v.858a.383.383 0 0 1-.387.38zm2.095-.389a.144.144 0 0 0-.146.143v.784c0 .079.065.143.146.143h.8c.08 0 .145-.064.145-.143V4.36a.144.144 0 0 0-.146-.143h-.8zm.8 1.354h-.8a.432.432 0 0 1-.436-.427V4.36c0-.235.195-.427.436-.427h.8c.24 0 .435.192.435.427v.784a.432.432 0 0 1-.436.427zm-2.326-.624a.145.145 0 0 0-.146.143v.46c0 .078.065.142.146.142h.468c.08 0 .146-.064.146-.143v-.46a.145.145 0 0 0-.146-.142h-.468zm.468 1.03h-.468a.432.432 0 0 1-.436-.428v-.46c0-.235.195-.426.436-.426h.468c.24 0 .436.191.436.427v.46a.432.432 0 0 1-.436.427zm4.377-.036a.027.027 0 0 0-.028.027v.272c0 .015.012.027.028.027h.277a.027.027 0 0 0 .028-.027v-.272a.027.027 0 0 0-.028-.027h-.277zm.277.61h-.277a.315.315 0 0 1-.318-.31v-.273c0-.172.142-.311.318-.311h.277c.175 0 .318.14.318.31v.273a.315.315 0 0 1-.318.311zm-2.272-.715a.11.11 0 0 0-.111.11v.404c0 .06.05.11.111.11h.414a.11.11 0 0 0 .111-.11v-.405a.11.11 0 0 0-.111-.11h-.414zm.414.908h-.414a.398.398 0 0 1-.401-.394v-.405c0-.217.18-.393.401-.393h.414c.221 0 .401.176.401.393v.405c0 .218-.18.394-.401.394zm-3.325-.35a.027.027 0 0 0-.027.027v.272c0 .015.012.027.027.027h.278a.027.027 0 0 0 .027-.027v-.272a.027.027 0 0 0-.027-.027h-.278zm.278.61h-.278a.315.315 0 0 1-.317-.31V6.42c0-.172.142-.311.317-.311h.278c.175 0 .317.14.317.311v.272a.315.315 0 0 1-.317.311zM2.66 2.79c-.313 0-.608.12-.83.337-.243.24-.367.57-.338.91l.01.12-.119.03A1.427 1.427 0 0 0 .29 5.564c0 .785.652 1.423 1.453 1.423h4.284c.06 0 .11-.048.11-.106v-1.95a.69.69 0 0 1 .695-.682l.499-.001a.077.077 0 0 0 .078-.077v-.998c0-.287.175-.596.56-.596h.363c.124 0 .149-.042.157-.056.063-.104-.01-.394-.175-.688A3.02 3.02 0 0 0 7.24.7 2.862 2.862 0 0 0 5.758.29L5.72.283a2.862 2.862 0 0 0-1.83.672 2.756 2.756 0 0 0-.956 1.718l-.02.135-.138-.013a1.203 1.203 0 0 0-.115-.006zm3.366 4.483H1.743C.782 7.273 0 6.506 0 5.565c0-.743.487-1.394 1.199-1.622-.001-.38.151-.746.428-1.017.276-.271.643-.42 1.034-.42h.006A3.043 3.043 0 0 1 3.701.74 3.156 3.156 0 0 1 5.736 0l.04.005c.572.003 1.13.16 1.616.453.485.293.88.71 1.176 1.239.11.196.345.682.17.97-.053.09-.167.195-.406.195h-.364c-.256 0-.269.26-.269.312v.998c0 .2-.165.361-.368.361h-.498a.402.402 0 0 0-.406.398v1.95c0 .216-.18.392-.4.392zM7.12 5.009a.206.206 0 0 0-.208.204v1.572c0 .112.093.203.208.203h1.527a.206.206 0 0 0 .208-.203V5.213a.206.206 0 0 0-.208-.204H7.12zm1.527 2.264H7.12a.494.494 0 0 1-.498-.488V5.213c0-.269.223-.488.498-.488h1.527c.274 0 .498.219.498.488v1.572c0 .269-.224.488-.498.488zm2.21-1.298a.156.156 0 0 0-.157.155v.704c0 .085.07.154.157.154h.719c.086 0 .157-.069.157-.154V6.13a.156.156 0 0 0-.157-.155h-.719zm.719 1.298h-.719a.444.444 0 0 1-.447-.439V6.13c0-.242.2-.44.447-.44h.719c.246 0 .447.198.447.44v.704c0 .242-.2.439-.447.439zm2.09-.61a.027.027 0 0 0-.027.026v.273c0 .014.012.026.027.026h.278a.027.027 0 0 0 .027-.026v-.273a.027.027 0 0 0-.027-.027h-.278zm.278.61h-.278a.315.315 0 0 1-.317-.311v-.273c0-.171.142-.31.317-.31h.278c.175 0 .317.139.317.31v.273a.315.315 0 0 1-.317.31zm1.46-.61a.027.027 0 0 0-.027.026v.273c0 .014.013.026.028.026h.277a.027.027 0 0 0 .028-.026v-.273a.027.027 0 0 0-.028-.027h-.277zm.278.61h-.277a.315.315 0 0 1-.318-.311v-.273c0-.171.143-.31.318-.31h.277c.176 0 .318.139.318.31v.273a.315.315 0 0 1-.318.31z" mask="url(#b)"/>
        </g>
    </g>
</svg>
