<svg xmlns="http://www.w3.org/2000/svg" xmlns:xlink="http://www.w3.org/1999/xlink" width="49" height="24" viewBox="0 0 49 24">
    <defs>
        <path id="a" d="M.02.012h29.403v14.226H.02z"/>
        <path id="c" d="M.044.045h6.469v5.428H.043z"/>
        <path id="e" d="M0 .005h7.602v8.75H0z"/>
        <path id="g" d="M.03.043h6.507v5.321H.03z"/>
    </defs>
    <g fill="none" fill-rule="evenodd" opacity=".7">
        <g transform="translate(10.394 .5)">
            <mask id="b" fill="#fff">
                <use xlink:href="#a"/>
            </mask>
            <path fill="#FEFEFE" d="M18.346 7.549a.1.1 0 0 0-.099.103v.614a.1.1 0 0 0 .1.103h.588a.1.1 0 0 0 .098-.103v-.614a.1.1 0 0 0-.098-.103h-.589zm.589 1.376h-.589a.647.647 0 0 1-.632-.66v-.613c0-.364.284-.66.632-.66h.589c.348 0 .631.296.631.66v.614c0 .363-.283.659-.631.659zM15.13 6.417a.182.182 0 0 0-.177.185v1.679c0 .102.08.185.177.185h1.61a.182.182 0 0 0 .177-.185V6.602a.182.182 0 0 0-.178-.185H15.13zm1.61 2.605h-1.61c-.391 0-.71-.332-.71-.741V6.602c0-.409.319-.741.71-.741h1.61c.391 0 .71.332.71.741v1.679c0 .409-.319.741-.71.741zm3.848-.76a.274.274 0 0 0-.267.28v1.532c0 .154.12.28.267.28h1.47a.274.274 0 0 0 .267-.28V8.541c0-.154-.12-.28-.267-.28h-1.47zm1.47 2.648h-1.47c-.441 0-.8-.375-.8-.836V8.541c0-.46.359-.836.8-.836h1.47c.441 0 .8.375.8.836v1.533c0 .46-.359.836-.8.836zm-4.274-1.221a.274.274 0 0 0-.268.28v.898c0 .154.12.28.268.28h.861a.274.274 0 0 0 .268-.28v-.899c0-.154-.12-.28-.268-.28h-.86zm.861 2.014h-.86c-.442 0-.802-.375-.802-.836v-.899c0-.46.36-.836.801-.836h.861c.442 0 .802.375.802.836v.899c0 .46-.36.836-.802.836zm8.042-.07a.051.051 0 0 0-.05.052v.533c0 .029.023.053.05.053h.51c.028 0 .05-.024.05-.053v-.533a.051.051 0 0 0-.05-.052h-.51zm.51 1.194h-.51a.597.597 0 0 1-.583-.609v-.533c0-.335.262-.608.583-.608h.51c.322 0 .584.273.584.608v.533a.597.597 0 0 1-.583.609zm-4.175-1.4a.21.21 0 0 0-.204.214v.793a.21.21 0 0 0 .204.214h.76a.21.21 0 0 0 .205-.214v-.793a.21.21 0 0 0-.205-.214h-.76zm.76 1.777h-.76c-.407 0-.738-.346-.738-.77v-.793c0-.424.331-.77.738-.77h.76c.407 0 .738.346.738.77v.793c0 .424-.33.77-.738.77zm-6.11-.684a.051.051 0 0 0-.05.052v.533c0 .029.023.052.05.052h.511c.028 0 .05-.023.05-.052v-.533a.051.051 0 0 0-.05-.052h-.51zm.511 1.193h-.51a.597.597 0 0 1-.584-.608v-.533c0-.336.262-.609.584-.609h.51c.322 0 .584.273.584.609v.533a.597.597 0 0 1-.584.608zM4.91 5.47c-.575 0-1.116.234-1.523.658a2.302 2.302 0 0 0-.623 1.78l.02.235-.22.058C1.38 8.515.554 9.623.554 10.897c0 1.535 1.197 2.785 2.669 2.785h7.874a.206.206 0 0 0 .202-.21V9.659c0-.735.573-1.334 1.278-1.334l.915-.001c.08 0 .144-.067.144-.15V6.22c0-.561.322-1.166 1.028-1.166h.669c.227 0 .273-.081.288-.108.116-.204-.02-.77-.323-1.347-.498-.95-1.162-1.696-1.973-2.217a5.021 5.021 0 0 0-2.722-.804l-.071-.01a5.072 5.072 0 0 0-3.362 1.314 5.49 5.49 0 0 0-1.758 3.36l-.035.265-.255-.026a2.088 2.088 0 0 0-.212-.011zm6.187 8.768H3.222c-1.766 0-3.202-1.499-3.202-3.341 0-1.452.895-2.725 2.203-3.172a2.86 2.86 0 0 1 .786-1.99 2.615 2.615 0 0 1 1.9-.821h.013A6.043 6.043 0 0 1 6.82 1.46 5.593 5.593 0 0 1 10.56.01l.071.01a5.538 5.538 0 0 1 2.972.887c.89.573 1.617 1.388 2.16 2.423.202.383.635 1.334.315 1.899-.099.173-.308.38-.747.38h-.67c-.47 0-.494.508-.494.61v1.953c0 .39-.304.706-.677.706l-.915.002c-.411 0-.745.348-.745.777v3.815c0 .422-.33.765-.735.765zm2.007-4.427a.391.391 0 0 0-.382.398v3.074c0 .22.172.399.382.399h2.807c.21 0 .382-.18.382-.399V10.21a.391.391 0 0 0-.382-.398h-2.807zm2.807 4.427h-2.807c-.504 0-.915-.428-.915-.955V10.21c0-.526.41-.955.915-.955h2.807c.504 0 .915.429.915.955v3.074c0 .527-.41.955-.915.955zm4.062-2.538c-.16 0-.29.135-.29.302v1.378c0 .166.13.302.29.302h1.32c.16 0 .29-.136.29-.302v-1.378a.296.296 0 0 0-.29-.302h-1.32zm1.32 2.538h-1.32c-.454 0-.823-.385-.823-.858v-1.378c0-.473.37-.858.823-.858h1.32c.454 0 .823.385.823.858v1.378c0 .473-.37.858-.823.858zm3.842-1.194a.051.051 0 0 0-.05.053v.532c0 .03.022.053.05.053h.51c.028 0 .05-.024.05-.053v-.532a.051.051 0 0 0-.05-.053h-.51zm.51 1.194h-.51a.597.597 0 0 1-.584-.609v-.532c0-.336.262-.609.584-.609h.51c.322 0 .583.273.583.609v.532a.597.597 0 0 1-.583.609zm2.685-1.194a.051.051 0 0 0-.05.053v.532c0 .03.022.053.05.053h.51c.028 0 .05-.024.05-.053v-.532a.051.051 0 0 0-.05-.053h-.51zm.51 1.194h-.51a.597.597 0 0 1-.584-.609v-.532c0-.336.262-.609.584-.609h.51c.322 0 .584.273.584.609v.532a.597.597 0 0 1-.584.609z" mask="url(#b)"/>
        </g>
        <g transform="translate(42.03 18.024)">
            <mask id="d" fill="#fff">
                <use xlink:href="#c"/>
            </mask>
            <path fill="#FEFEFE" d="M1.376 4.878h3.57c.364 0 .728.002 1.092-.001.225-.002.464.002.473.29.01.294-.226.307-.454.306H.554c-.193 0-.396.01-.485-.2-.093-.222.084-.342.228-.46 1.119-.92 2.24-1.836 3.36-2.753L5.382.646H.531C.307.646.064.64.061.352.055.067.29.045.52.046h5.503c.195 0 .375-.002.46.225.09.239-.047.374-.207.504L2.619 3.757c-.425.346-.848.694-1.273 1.041l.03.08" mask="url(#d)"/>
        </g>
        <g transform="translate(.576 14.738)">
            <mask id="f" fill="#fff">
                <use xlink:href="#e"/>
            </mask>
            <path fill="#FEFEFE" d="M3.788.008C4.908.008 6.03.01 7.15.005c.224 0 .443.024.451.313.01.307-.222.37-.454.37-.892.004-1.784.016-2.675-.006-.306-.007-.406.062-.404.42.017 2.357.01 4.714.009 7.07 0 .104.008.21-.006.312-.026.176-.126.278-.298.27-.152-.007-.244-.105-.268-.263-.015-.102-.006-.208-.006-.312 0-2.37-.006-4.739.006-7.108.002-.307-.074-.395-.359-.388-.891.02-1.783.009-2.675.005C.306.688.118.705.038.494-.073.2.064.01.39.009 1.523.006 2.655.008 3.788.008" mask="url(#f)"/>
        </g>
        <path fill="#FEFEFE" d="M31.128 23.5c-.457 0-.51-.07-.663-.351-.833-1.53-1.68-3.05-2.528-4.572-.111-.2-.15-.392.078-.51.222-.115.363.02.473.22.794 1.437 1.591 2.872 2.39 4.306.063.112.082.292.255.284.161-.008.193-.178.256-.293.757-1.372 1.511-2.746 2.266-4.12.036-.065.072-.13.11-.195.112-.193.27-.32.486-.196.21.12.152.318.058.493-.33.613-.664 1.225-.998 1.836-.49.895-.99 1.784-1.466 2.686-.165.313-.171.412-.717.412M13.668 21.257c0-.55-.004-1.1.001-1.65.01-.868.756-1.57 1.687-1.577 1.062-.008 2.125-.009 3.187 0 .874.008 1.65.712 1.669 1.484.004.21-.038.395-.288.421-.248.026-.33-.13-.371-.347-.123-.648-.516-.953-1.22-.958a184.27 184.27 0 0 0-2.783 0c-.796.006-1.232.423-1.235 1.176-.004 1.074-.002 2.15 0 3.224 0 .22.01.462-.31.47-.351.008-.339-.248-.338-.48.002-.588 0-1.176.001-1.763"/>
        <g transform="translate(6.03 18.024)">
            <mask id="h" fill="#fff">
                <use xlink:href="#g"/>
            </mask>
            <path fill="#FEFEFE" d="M.623 2.266C.563 1.09.873.559 2.247.62c.807.037 1.617.006 2.425.007.857.002 1.258.392 1.263 1.22.004.673.004.673-.703.673h-1.94c-.797 0-1.593-.006-2.389.004-.204.003-.27-.047-.28-.26m.315.834c.846.013 1.692.005 2.538.005.871 0 1.743-.008 2.613.003.316.004.46-.105.447-.423-.014-.363.001-.728-.004-1.091C6.518.74 5.812.053 4.934.048 3.839.04 2.744.042 1.649.047.743.051.04.731.033 1.608c-.006.716-.005 1.431 0 2.146.006.92.707 1.603 1.65 1.606 1.108.003 2.216 0 3.323 0 .336 0 .673.011 1.008-.003.27-.012.408-.26.268-.453-.102-.14-.257-.126-.406-.126H2.03c-1.05 0-1.41-.364-1.407-1.38.001-.242.075-.303.315-.3" mask="url(#h)"/>
        </g>
        <path fill="#FEFEFE" d="M26.157 21.145c-.017.223.002.448-.006.672-.024.65-.438 1.07-1.095 1.077-1.05.012-2.102.012-3.152 0-.62-.007-1.09-.46-1.087-1.008.003-.549.473-.996 1.091-1.008.675-.014 1.351-.003 2.026-.004.65 0 1.301.008 1.951-.005.217-.004.287.065.272.276m.596-1.477c-.006-.948-.709-1.638-1.669-1.642-.7-.003-1.402 0-2.103 0-.764 0-1.528.001-2.291-.002-.222-.001-.42.032-.415.306.005.275.21.302.427.295.075-.002.15 0 .225 0h3.907c.93 0 1.318.4 1.325 1.32.002.258-.06.338-.329.335a255.81 255.81 0 0 0-4.019-.004c-.906.005-1.602.722-1.6 1.628.004.88.706 1.587 1.596 1.592 1.114.006 2.229.005 3.343 0a1.583 1.583 0 0 0 1.603-1.582 151.8 151.8 0 0 0 0-2.246M41.484 21.772c-.008.695-.39 1.118-1.01 1.125-.572.006-1.144.001-1.716.001-.572 0-1.144.005-1.716-.001-.622-.006-1.004-.428-1.012-1.122a92.37 92.37 0 0 1 0-2.02c.008-.695.39-1.122 1.01-1.125 1.144-.006 2.287-.006 3.431 0 .621.003 1.005.428 1.013 1.122.007.673.007 1.347 0 2.02m.537-2.1c-.013-.926-.645-1.632-1.477-1.64-1.19-.011-2.378-.01-3.567 0-.835.007-1.47.71-1.484 1.633a77.98 77.98 0 0 0-.001 2.17c.012.95.64 1.647 1.495 1.66.594.01 1.189.002 1.783.002.594 0 1.19.009 1.783-.003.815-.015 1.45-.711 1.467-1.614.014-.735.012-1.472.001-2.207"/>
    </g>
</svg>
